HIERARCHY
ROOT Model
{
	OFFSET 0 0 0
	CHANNELS 6 Xposition Yposition Zposition Zrotation Xrotation Yrotation
	JOINT Model1
	{
		OFFSET 0 -2.25479 2.99383
		CHANNELS 3 Zrotation Xrotation Yrotation
		JOINT Model2
		{
			OFFSET 12.111 0 0
			CHANNELS 3 Zrotation Xrotation Yrotation
			JOINT Model3
			{
				OFFSET 11.5502 0 0
				CHANNELS 3 Zrotation Xrotation Yrotation
				JOINT Model4
				{
					OFFSET 11.781 0 0
					CHANNELS 3 Zrotation Xrotation Yrotation
					JOINT Model5
					{
						OFFSET 20.0601 0 0
						CHANNELS 3 Zrotation Xrotation Yrotation
						JOINT Model6
						{
							OFFSET 11.1962 0 0
							CHANNELS 3 Zrotation Xrotation Yrotation
							End Site
							{
								OFFSET 0 0 0
							}
						}
					}
					JOINT Model7
					{
						OFFSET 10.8223 0.417538 3.51114
						CHANNELS 3 Zrotation Xrotation Yrotation
						JOINT Model8
						{
							OFFSET -6.07943 0 0
							CHANNELS 3 Zrotation Xrotation Yrotation
							JOINT Model9
							{
								OFFSET -0.277412 10.39 -0.0512428
								CHANNELS 3 Zrotation Xrotation Yrotation
								JOINT Model10
								{
									OFFSET -3.4391 -0.282043 1.86678
									CHANNELS 3 Zrotation Xrotation Yrotation
									JOINT Model11
									{
										OFFSET 13.0269 0 0
										CHANNELS 3 Zrotation Xrotation Yrotation
										JOINT Model12
										{
											OFFSET 10.8866 0 0
											CHANNELS 3 Zrotation Xrotation Yrotation
											JOINT Model13
											{
												OFFSET 16.7317 0 0
												CHANNELS 3 Zrotation Xrotation Yrotation
												JOINT Model14
												{
													OFFSET 11.8292 0 0
													CHANNELS 3 Zrotation Xrotation Yrotation
													JOINT Model15
													{
														OFFSET 4.82751 -3.73566 -0.836517
														CHANNELS 3 Zrotation Xrotation Yrotation
														JOINT Model16
														{
															OFFSET 3.75311 -0.0582924 -0.0186462
															CHANNELS 3 Zrotation Xrotation Yrotation
															JOINT Model17
															{
																OFFSET 2.88689 0.0192337 0.014801
																CHANNELS 3 Zrotation Xrotation Yrotation
																End Site
																{
																	OFFSET 0 0 0
																}
															}
														}
													}
													JOINT Model18
													{
														OFFSET 9.72198 -3.06458 0.238766
														CHANNELS 3 Zrotation Xrotation Yrotation
														JOINT Model19
														{
															OFFSET 4.61131 0 0
															CHANNELS 3 Zrotation Xrotation Yrotation
															JOINT Model20
															{
																OFFSET 2.8969 -1.14441e-005 0
																CHANNELS 3 Zrotation Xrotation Yrotation
																End Site
																{
																	OFFSET 0 0 0
																}
															}
														}
													}
													JOINT Model21
													{
														OFFSET 9.5443 -0.745064 0.588936
														CHANNELS 3 Zrotation Xrotation Yrotation
														JOINT Model22
														{
															OFFSET 5.33978 0 0
															CHANNELS 3 Zrotation Xrotation Yrotation
															JOINT Model23
															{
																OFFSET 3.03619 1.14441e-005 0
																CHANNELS 3 Zrotation Xrotation Yrotation
																End Site
																{
																	OFFSET 0 0 0
																}
															}
														}
													}
													JOINT Model24
													{
														OFFSET 9.47759 1.51286 0.485119
														CHANNELS 3 Zrotation Xrotation Yrotation
														JOINT Model25
														{
															OFFSET 4.96136 1.14441e-005 0
															CHANNELS 3 Zrotation Xrotation Yrotation
															JOINT Model26
															{
																OFFSET 2.51965 0 0
																CHANNELS 3 Zrotation Xrotation Yrotation
																End Site
																{
																	OFFSET 0 0 0
																}
															}
														}
													}
													JOINT Model27
													{
														OFFSET 9.34248 3.34117 -0.239281
														CHANNELS 3 Zrotation Xrotation Yrotation
														JOINT Model28
														{
															OFFSET 3.28259 2.67029e-005 0
															CHANNELS 3 Zrotation Xrotation Yrotation
															JOINT Model29
															{
																OFFSET 2.1292 0 0
																CHANNELS 3 Zrotation Xrotation Yrotation
																End Site
																{
																	OFFSET 0 0 0
																}
															}
														}
													}
												}
											}
										}
									}
								}
							}
						}
					}
					JOINT Model30
					{
						OFFSET 10.8223 0.417904 -3.51107
						CHANNELS 3 Zrotation Xrotation Yrotation
						JOINT Model31
						{
							OFFSET 6.07943 0 0
							CHANNELS 3 Zrotation Xrotation Yrotation
							JOINT Model32
							{
								OFFSET 0.277412 -10.39 0.0512428
								CHANNELS 3 Zrotation Xrotation Yrotation
								JOINT Model33
								{
									OFFSET 3.4391 0.282043 -1.86678
									CHANNELS 3 Zrotation Xrotation Yrotation
									JOINT Model34
									{
										OFFSET -13.0269 0 0
										CHANNELS 3 Zrotation Xrotation Yrotation
										JOINT Model35
										{
											OFFSET -10.8866 0 0
											CHANNELS 3 Zrotation Xrotation Yrotation
											JOINT Model36
											{
												OFFSET -16.7317 0 0
												CHANNELS 3 Zrotation Xrotation Yrotation
												JOINT Model37
												{
													OFFSET -11.8292 0 0
													CHANNELS 3 Zrotation Xrotation Yrotation
													JOINT Model38
													{
														OFFSET -4.82751 3.73566 0.836517
														CHANNELS 3 Zrotation Xrotation Yrotation
														JOINT Model39
														{
															OFFSET -3.75311 0.0582848 0.0186424
															CHANNELS 3 Zrotation Xrotation Yrotation
															JOINT Model40
															{
																OFFSET -2.88688 -0.0192375 -0.014801
																CHANNELS 3 Zrotation Xrotation Yrotation
																End Site
																{
																	OFFSET 0 0 0
																}
															}
														}
													}
													JOINT Model41
													{
														OFFSET -9.72197 3.06459 -0.23877
														CHANNELS 3 Zrotation Xrotation Yrotation
														JOINT Model42
														{
															OFFSET -4.6113 0 0
															CHANNELS 3 Zrotation Xrotation Yrotation
															JOINT Model43
															{
																OFFSET -2.8969 0 0
																CHANNELS 3 Zrotation Xrotation Yrotation
																End Site
																{
																	OFFSET 0 0 0
																}
															}
														}
													}
													JOINT Model44
													{
														OFFSET -9.5443 0.745064 -0.58894
														CHANNELS 3 Zrotation Xrotation Yrotation
														JOINT Model45
														{
															OFFSET -5.33978 0 0
															CHANNELS 3 Zrotation Xrotation Yrotation
															JOINT Model46
															{
																OFFSET -3.03619 -1.52588e-005 0
																CHANNELS 3 Zrotation Xrotation Yrotation
																End Site
																{
																	OFFSET 0 0 0
																}
															}
														}
													}
													JOINT Model47
													{
														OFFSET -9.47759 -1.51286 -0.485123
														CHANNELS 3 Zrotation Xrotation Yrotation
														JOINT Model48
														{
															OFFSET -4.96136 -1.52588e-005 0
															CHANNELS 3 Zrotation Xrotation Yrotation
															JOINT Model49
															{
																OFFSET -2.51966 0 0
																CHANNELS 3 Zrotation Xrotation Yrotation
																End Site
																{
																	OFFSET 0 0 0
																}
															}
														}
													}
													JOINT Model50
													{
														OFFSET -9.34246 -3.34118 0.239277
														CHANNELS 3 Zrotation Xrotation Yrotation
														JOINT Model51
														{
															OFFSET -3.2826 -1.90735e-005 0
															CHANNELS 3 Zrotation Xrotation Yrotation
															JOINT Model52
															{
																OFFSET -2.1292 0 0
																CHANNELS 3 Zrotation Xrotation Yrotation
																End Site
																{
																	OFFSET 0 0 0
																}
															}
														}
													}
												}
											}
										}
									}
								}
							}
						}
					}
				}
			}
		}
	}
	JOINT Model53
	{
		OFFSET 4.38026 -2.14632 -1.11516
		CHANNELS 3 Zrotation Xrotation Yrotation
		JOINT Model54
		{
			OFFSET 0 0 4.94999
			CHANNELS 3 Zrotation Xrotation Yrotation
			JOINT Model55
			{
				OFFSET 18.5642 0 0
				CHANNELS 3 Zrotation Xrotation Yrotation
				JOINT Model56
				{
					OFFSET 21.2884 0 1.14441e-005
					CHANNELS 3 Zrotation Xrotation Yrotation
					JOINT Model57
					{
						OFFSET 30.261 0 0
						CHANNELS 3 Zrotation Xrotation Yrotation
						JOINT Model58
						{
							OFFSET 11.7259 0 0
							CHANNELS 3 Zrotation Xrotation Yrotation
							JOINT Model59
							{
								OFFSET 10.682 0 0
								CHANNELS 3 Zrotation Xrotation Yrotation
								End Site
								{
									OFFSET 0 0 0
								}
							}
						}
					}
				}
			}
		}
	}
	JOINT Model60
	{
		OFFSET -4.38026 -2.14632 -1.11516
		CHANNELS 3 Zrotation Xrotation Yrotation
		JOINT Model61
		{
			OFFSET 0 0 -4.94999
			CHANNELS 3 Zrotation Xrotation Yrotation
			JOINT Model62
			{
				OFFSET -18.5642 0 0
				CHANNELS 3 Zrotation Xrotation Yrotation
				JOINT Model63
				{
					OFFSET -21.2884 0 -1.14441e-005
					CHANNELS 3 Zrotation Xrotation Yrotation
					JOINT Model64
					{
						OFFSET -30.261 0 0
						CHANNELS 3 Zrotation Xrotation Yrotation
						JOINT Model65
						{
							OFFSET -11.7259 0 0
							CHANNELS 3 Zrotation Xrotation Yrotation
							JOINT Model66
							{
								OFFSET -10.682 0 0
								CHANNELS 3 Zrotation Xrotation Yrotation
								End Site
								{
									OFFSET 0 0 0
								}
							}
						}
					}
				}
			}
		}
	}
}
MOTION
Frames: 4
Frame Time: 0.033333
40.7522 130.67 37.1432 -78.682 -21.9287 -91.5482 -180 -6.53164e-013 -90 -0.315909 -0.80409 0.173064 -0.62948 -1.60956 0.341741 -0.62948 -1.60912 0.341746 30.7385 17.1283 -48.5687 -24.3441 13.9735 21.6518 120.092 75.5343 58.4939 -13.9955 -21.4952 -7.21811 -167.277 84.4999 48.8109 -156.304 -28.9429 3.7133 1.13996e-005 -19.0719 2.38862e-005 -143.916 -6.30403 0.360575 -6.34565e-007 -8.64209 -1.02038e-006 -1.67004 -0.975054 60.5544 -72.0648 39.0385 39.3397 33.3638 2.10362 14.835 0.588947 0.308273 6.35287 -99.6409 81.413 100.35 -0.0181409 2.77761e-005 -0.117315 -0.124139 0.00241112 -0.799296 -79.8382 79.5773 80.5374 -0.000225776 -0.000220925 2.21955e-005 -0.000956226 0.000122891 -2.73191e-005 -66.7416 80.4058 67.2171 -0.000437132 1.59429e-005 -2.73193e-005 -0.000136604 -0.000109295 -5.46394e-005 -6.42159 81.2158 8.01779 -0.000218566 1.68992e-005 0.000212143 0.000901585 -0.000184814 -0.000218562 -59.9282 75.5373 58.5147 -25.1232 70.3755 43.313 -167.277 84.4999 48.8109 152.87 -6.38846 7.42975 4.78405e-007 10.7135 3.2064e-005 -134.031 3.86433 0.439094 -2.42498e-006 6.33866 9.02502e-007 -0.0525891 0.00247544 -5.38853 -72.0648 39.0385 39.3397 33.3638 2.10361 14.835 0.588946 0.308273 6.35287 -99.6409 81.413 100.35 -0.0181409 3.00693e-005 -0.117315 -0.124139 0.00241112 -0.799296 -79.8382 79.5773 80.5374 -0.000260651 -0.000218575 2.35717e-005 -0.000956232 0.000122984 -2.73191e-005 -66.7416 80.4058 67.2171 -0.000437137 1.48723e-005 -2.73191e-005 -0.00013661 -0.000109295 -5.46393e-005 -6.42159 81.2158 8.01779 -0.00021857 1.957e-005 0.0002123 0.000901577 -0.000191257 -0.000218562 0.00081454 0.56661 89.91 -35.4514 -13.5167 -29.5355 -3.84848e-006 -10.2378 -3.67571e-007 40.2981 9.61254 -0.0055209 3.9584e-007 14.343 3.89244e-007 -54.3372 3.94043 -3.19619 -37.3633 -5.2796 0.110913 -180 -0.566576 -90.09 -34.6442 1.8717 -13.6793 2.8164e-006 7.64742 -1.5186e-007 51.2554 16.1597 -0.00656002 6.26473e-007 24.1458 1.51676e-006 -78.1223 12.1492 -6.52013 -35.4947 2.05145e-007 3.39183e-008 
40.608 132.266 36.85 -79.5632 -23.0262 -92.7887 -180 -6.53164e-013 -90 0.221248 -0.786847 -0.359471 0.437608 -1.5755 -0.716003 0.437608 -1.57506 -0.716006 29.3354 17.3205 -47.7791 -24.7506 13.2264 22.1886 120.092 75.5343 58.4939 -12.888 -20.9832 -6.92608 -167.277 84.4999 48.8109 -158.014 -28.901 3.73223 1.14433e-005 -19.1708 2.39005e-005 -143.595 -5.36865 0.362791 -6.0954e-007 -7.24803 -1.01692e-006 -4.61065 -2.45664 56.0806 -72.0648 39.0385 39.3397 33.3638 2.10362 14.835 0.588947 0.308273 6.35287 -99.6409 81.413 100.35 -0.0181409 2.77761e-005 -0.117315 -0.124139 0.00241112 -0.799296 -79.8382 79.5773 80.5374 -0.000225776 -0.000220925 2.21955e-005 -0.000956226 0.000122891 -2.73191e-005 -66.7416 80.4058 67.2171 -0.000437132 1.59429e-005 -2.73193e-005 -0.000136604 -0.000109295 -5.46394e-005 -6.42159 81.2158 8.01779 -0.000218566 1.68992e-005 0.000212143 0.000901585 -0.000184814 -0.000218562 -59.9282 75.5373 58.5147 -23.3363 69.0487 41.0342 -167.277 84.4999 48.8109 155.195 -5.55587 8.12366 -2.21087e-007 11.9365 3.22014e-005 -135.13 4.17 0.431054 -2.43272e-006 6.82677 9.03389e-007 -0.0525891 0.00247544 -5.38853 -72.0648 39.0385 39.3397 33.3638 2.10361 14.835 0.588946 0.308273 6.35287 -99.6409 81.413 100.35 -0.0181409 3.00693e-005 -0.117315 -0.124139 0.00241112 -0.799296 -79.8382 79.5773 80.5374 -0.000260651 -0.000218575 2.35717e-005 -0.000956232 0.000122984 -2.73191e-005 -66.7416 80.4058 67.2171 -0.000437137 1.48723e-005 -2.73191e-005 -0.00013661 -0.000109295 -5.46393e-005 -6.42159 81.2158 8.01779 -0.00021857 1.957e-005 0.0002123 0.000901577 -0.000191257 -0.000218562 0.00081454 0.56661 89.91 -37.1413 -14.5133 -30.6067 -3.86072e-006 -12.1048 -3.69944e-007 42.2566 10.9416 -0.00571847 3.81754e-007 16.3333 3.9297e-007 -48.0151 1.52242 -1.35564 -35.4947 9.47133e-007 8.99286e-007 -180 -0.566576 -90.09 -31.0466 0.473213 -15.7127 2.81481e-006 7.0543 -1.51657e-007 46.2151 16.3823 -0.00606204 6.16535e-007 24.4875 1.52085e-006 -76.3537 11.1494 -6.23307 -35.4947 -9.20514e-007 -2.84947e-008 
40.4328 134.203 36.3324 -80.1574 -23.463 -93.2556 -180 -6.53164e-013 -90 0.72235 -0.735726 -0.704245 1.43577 -1.48066 -1.39933 1.43577 -1.48022 -1.39934 28.3351 17.5558 -48.9886 -25.8136 12.2924 23.9315 120.092 75.5343 58.4939 -11.644 -21.1206 -6.94581 -167.277 84.4999 48.8109 -162.415 -28.949 1.76934 1.10667e-005 -18.3137 2.37795e-005 -143.415 -1.29487 0.363053 -5.01366e-007 -1.14292 -1.009e-006 -12.5858 -5.24073 45.0782 -72.0648 39.0385 39.3397 33.3638 2.10362 14.835 0.588947 0.308273 6.35287 -99.6409 81.413 100.35 -0.0181409 2.77761e-005 -0.117315 -0.124139 0.00241112 -0.799296 -79.8382 79.5773 80.5374 -0.000225776 -0.000220925 2.21955e-005 -0.000956226 0.000122891 -2.73191e-005 -66.7416 80.4058 67.2171 -0.000437132 1.59429e-005 -2.73193e-005 -0.000136604 -0.000109295 -5.46394e-005 -6.42159 81.2158 8.01779 -0.000218566 1.68992e-005 0.000212143 0.000901585 -0.000184814 -0.000218562 -59.9282 75.5373 58.5147 -19.9533 68.703 38.0002 -167.277 84.4999 48.8109 156.339 -4.83806 9.39727 -7.65334e-007 12.8806 3.23183e-005 -135.734 4.42046 0.426624 -2.43895e-006 7.21877 9.04151e-007 -0.0525891 0.00247544 -5.38853 -72.0648 39.0385 39.3397 33.3638 2.10361 14.835 0.588946 0.308273 6.35287 -99.6409 81.413 100.35 -0.0181409 3.00693e-005 -0.117315 -0.124139 0.00241112 -0.799296 -79.8382 79.5773 80.5374 -0.000260651 -0.000218575 2.35717e-005 -0.000956232 0.000122984 -2.73191e-005 -66.7416 80.4058 67.2171 -0.000437137 1.48723e-005 -2.73191e-005 -0.00013661 -0.000109295 -5.46393e-005 -6.42159 81.2158 8.01779 -0.00021857 1.957e-005 0.0002123 0.000901577 -0.000191257 -0.000218562 0.00081454 0.56661 89.91 -39.2271 -15.6701 -32.9875 -3.87361e-006 -14.0413 -3.72859e-007 43.9059 11.4994 -0.00591054 3.75769e-007 17.167 3.94695e-007 -42.2113 -1.4359 1.36951 -35.4947 -2.22561e-008 -1.72678e-007 -180 -0.566576 -90.09 -26.8009 -0.8562 -16.3999 2.81288e-006 6.33006 -1.51433e-007 39.325 16.7007 -0.00529184 6.02203e-007 24.9769 1.52685e-006 -73.1396 9.87437 -5.88718 -36.0376 -0.00286351 -0.0387147 
40.221 135.965 35.7954 -80.8063 -23.1801 -93.0818 -180 -6.53164e-013 -90 1.20742 -0.641682 -0.857928 2.40532 -1.30167 -1.70231 2.40532 -1.30123 -1.70233 26.9895 18.187 -50.021 -26.2832 11.7518 25.4155 120.092 75.5343 58.4939 -10.7657 -21.4998 -7.08674 -167.277 84.4999 48.8109 -168.332 -27.1805 -0.842167 9.54766e-006 -14.7724 2.33468e-005 -144.291 7.84116 0.359287 -2.56042e-007 12.584 -1.03363e-006 -18.0272 -4.9842 30.6854 -72.0648 39.0385 39.3397 33.3638 2.10362 14.835 0.588947 0.308273 6.35287 -99.6409 81.413 100.35 -0.0181409 2.77761e-005 -0.117315 -0.124139 0.00241112 -0.799296 -79.8382 79.5773 80.5374 -0.000225776 -0.000220925 2.21955e-005 -0.000956226 0.000122891 -2.73191e-005 -66.7416 80.4058 67.2171 -0.000437132 1.59429e-005 -2.73193e-005 -0.000136604 -0.000109295 -5.46394e-005 -6.42159 81.2158 8.01779 -0.000218566 1.68992e-005 0.000212143 0.000901585 -0.000184814 -0.000218562 -59.9282 75.5373 58.5147 -15.3442 68.8972 34.2751 -167.277 84.4999 48.8109 156.029 -4.3776 10.7884 -1.08139e-006 13.4256 3.23902e-005 -136.239 4.68408 0.422922 -2.44546e-006 7.62785 9.04993e-007 -0.0525891 0.00247544 -5.38853 -72.0648 39.0385 39.3397 33.3638 2.10361 14.835 0.588946 0.308273 6.35287 -99.6409 81.413 100.35 -0.0181409 3.00693e-005 -0.117315 -0.124139 0.00241112 -0.799296 -79.8382 79.5773 80.5374 -0.000260651 -0.000218575 2.35717e-005 -0.000956232 0.000122984 -2.73191e-005 -66.7416 80.4058 67.2171 -0.000437137 1.48723e-005 -2.73191e-005 -0.00013661 -0.000109295 -5.46393e-005 -6.42159 81.2158 8.01779 -0.00021857 1.957e-005 0.0002123 0.000901577 -0.000191257 -0.000218562 0.00081454 0.56661 89.91 -40.8219 -16.3785 -35.879 -3.88031e-006 -15.0359 -3.74542e-007 45.2082 10.9885 -0.00606803 3.81286e-007 16.3986 3.93102e-007 -39.7177 -3.49945 3.43142 -35.4947 -4.81767e-007 -6.85959e-007 -180 -0.566576 -90.09 -27.3025 -0.433971 -15.4476 2.81309e-006 6.40928 -1.51456e-007 40.9653 17.4165 -0.00549924 5.70448e-007 26.0476 1.54053e-006 -68.2356 7.2813 -4.85132 -35.5551 0.152543 -0.0162667 
